# xmcd CD database file
#
# Track frame offsets:
#	150
#	9831
#	31710
#	41066
#	49924
#	65980
#	81881
#	91292
#	105928
#	120338
#	133598
#	147985
#	160356
#	172439
#	179693
#	196000
#	212315
#	225166
#	236397
#	250347
#
# Disc length: 3540 seconds
#
# Revision: 0
# Processed by: cddbd v1.5.2PL0 Copyright (c) Steve Scherf et al.
# Submitted via: CDex 1.51
#
DISCID=060dd214
DTITLE=Willie Nelson - Greatest Hits Live
DYEAR=2016
DGENRE=Country
TTITLE0=On The Road Again
TTITLE1=City Of New Orleans
TTITLE2=If You've Got The Money, Honey
TTITLE3=Whiskey River
TTITLE4=Always On My Mind
TTITLE5=Stardust
TTITLE6=All Of Me
TTITLE7=Blue Skies
TTITLE8=Georgia On My Mind
TTITLE9=Blue Eyes Crying In The Rain
TTITLE10=Under The Double Eagle
TTITLE11=Stay All Night
TTITLE12=Seven Spanish Angels
TTITLE13=Luckenbach, Texas
TTITLE14=Good-Hearted Woman
TTITLE15=Angel Flying Too Close To The Ground
TTITLE16=To All The Girls I've Loved Before
TTITLE17=Mammas, Don't Let Your Babies Grow Up To Be Cowboys
TTITLE18=Me And Bobby McGee
TTITLE19=Help Me Make It Through The Night
EXTD=YEAR: 2016
EXTT0=
EXTT1=
EXTT2=
EXTT3=
EXTT4=
EXTT5=
EXTT6=
EXTT7=
EXTT8=
EXTT9=
EXTT10=
EXTT11=
EXTT12=
EXTT13=
EXTT14=
EXTT15=
EXTT16=
EXTT17=
EXTT18=
EXTT19=
PLAYORDER=
